# xmcd
#
# Track frame offsets:
#	150
#	19084
#	33327
#	34703
#	49209
#	72604
#	88357
#	106491
#	123525
#	139713
#	159084
#	174859
#	197345
#	214604
#	225888
#
# Disc length: 3152 seconds
#
# Revision: 0
# Processed by: cddbd v1.5.2PL0 Copyright (c) Steve Scherf et al.
# Submitted via: dBpowerAMP V4.0
#
DISCID=c10c4e0f
DTITLE=B.C. Read - Bowl of Sugar
DYEAR=2006
DGENRE=Blues
TTITLE0=Once and Awhile
TTITLE1=A Blues Man Has Got To Wear a Hat
TTITLE2=Loves Rule Prelude
TTITLE3=Loves Rule
TTITLE4=I've Got News for You
TTITLE5=Can't Be Found
TTITLE6=Prove That You Love Me
TTITLE7=Louisiana Dream
TTITLE8=(Get Yourself A) Garbage Man
TTITLE9=Highway Shoes
TTITLE10=So Glad
TTITLE11=Raining and Pouring
TTITLE12=Why Do Girls Do That
TTITLE13=Hiding Place
TTITLE14=Bowl of Sugar
EXTD=
EXTT0=
EXTT1=
EXTT2=
EXTT3=
EXTT4=
EXTT5=
EXTT6=
EXTT7=
EXTT8=
EXTT9=
EXTT10=
EXTT11=
EXTT12=
EXTT13=
EXTT14=
PLAYORDER=
